<svg width="18" height="18" viewBox="0 0 18 18" fill="none" xmlns="http://www.w3.org/2000/svg">
<path d="M0.00115125 8.37431L0.203195 7.17413C2.6352 -3.00289 17.7206 -0.917984 17.0615 9.72472C16.8238 13.5624 13.6193 17.015 9.79539 17.4536V10.7131C9.79539 10.5657 10.0406 10.5323 10.1534 10.5214C10.6703 10.4719 11.2517 10.5565 11.7755 10.5202L12.1612 7.98979H9.82244C9.66932 7.76242 9.76027 7.22421 9.81956 6.941C10.0774 5.71032 11.0128 5.53648 12.1261 5.73795L12.5469 3.31227C9.86101 2.69923 7.40943 3.79925 7.05081 6.70327C7.00879 7.04634 7.04736 7.52238 6.98865 7.85164C6.97771 7.91323 6.95986 7.95468 6.90576 7.98921H4.95209V10.5202H6.63061C6.70947 10.5202 6.93339 10.682 6.93339 10.7678V17.3984C3.73695 16.8578 1.12822 14.3527 0.29069 11.2472L0 9.69479V8.37373H0.00115125V8.37431Z" fill="white"/>
</svg>
