<svg width="400" height="128" viewBox="0 0 400 128" fill="none" xmlns="http://www.w3.org/2000/svg">
<g clip-path="url(#clip0_98_29)">
<path d="M181.704 76.4594C182.111 75.3407 182.536 74.2255 182.922 73.0996C185.185 66.494 187.44 59.8885 189.7 53.2829C190.673 50.4397 191.629 47.5894 192.639 44.7605C192.773 44.3792 193.134 44.0301 193.471 43.7736C199.639 39.1097 205.818 34.4673 211.993 29.8142C213.827 28.4318 215.651 27.0423 217.57 25.5886C222.513 32.2975 227.41 38.953 232.36 45.6726C230.898 47.4576 229.421 49.2497 227.952 51.049C223.228 56.8422 218.508 62.639 213.785 68.4322C212.719 69.7363 211.66 71.0474 210.559 72.3193C210.141 72.8003 210.166 73.064 210.683 73.4381C212.018 74.4108 213.353 75.3905 214.606 76.463C215.417 77.1577 216.324 77.1399 217.255 77.1577C223.384 77.2789 229.513 77.3893 235.646 77.5069C235.898 77.5105 236.152 77.5532 236.595 77.5924C235.589 79.0211 234.687 80.3144 233.773 81.6006C230.476 86.2466 227.176 90.8926 223.873 95.5351C222.623 97.2916 221.387 99.0552 220.084 100.772C219.875 101.047 219.347 101.253 219 101.214C215.676 100.844 212.354 100.416 209.036 99.9922C207.726 99.8248 206.398 99.7215 205.124 99.3972C204.5 99.2369 203.923 98.7025 203.431 98.225C197.674 92.6634 191.937 87.0803 186.191 81.5116C184.693 80.0579 183.174 78.6221 181.485 77.0045C181.386 77.628 181.276 78.0378 181.265 78.4511C181.177 82.3025 181.127 86.154 181.021 90.0055C180.95 92.6384 180.798 95.2678 180.699 97.8972C180.681 98.3569 180.55 98.5956 180.044 98.6276C178.489 98.7203 176.938 98.8699 175.384 98.9697C171.273 99.2298 167.162 99.4792 163.051 99.7286C162.676 99.75 162.3 99.7286 161.758 99.7286V52.8411C161.666 52.8126 161.574 52.7841 161.482 52.7556C159.333 55.5738 157.184 58.3921 155.031 61.2174C151.136 58.9621 147.322 56.7531 143.293 54.4194C142.11 69.4762 140.942 84.3156 139.77 99.2298C138.626 99.3117 137.496 99.44 136.363 99.4685C131.53 99.5861 126.693 99.6609 121.86 99.7891C121.258 99.8034 121.247 99.5219 121.244 99.0979C121.201 94.8011 121.148 90.5007 121.116 86.2039C121.091 82.7942 121.105 79.3845 121.081 75.9749C121.031 69.1306 120.96 62.2827 120.925 55.4384C120.925 54.7544 120.748 54.3197 120.157 53.9099C116.545 51.4052 112.965 48.8507 109.375 46.3175C109.144 46.1571 108.889 46.036 108.514 45.8187C108.493 46.2676 108.465 46.574 108.465 46.8839C108.45 50.3542 108.468 53.8244 108.418 57.2947C108.344 62.3005 108.227 67.3028 108.11 72.3087C108.096 72.9429 108.252 73.3775 108.765 73.8264C111.704 76.4238 114.58 79.0959 117.508 81.7075C118.032 82.1743 118.032 82.4165 117.607 82.9795C112.448 89.8166 107.324 96.6823 102.19 103.537C102.07 103.698 101.917 103.837 101.677 104.1C96.8929 98.8842 92.141 93.7073 87.2581 88.3844C84.5352 94.1705 81.9078 99.7606 79.238 105.433C77.7544 104.77 76.338 104.15 74.9288 103.509C69.8193 101.175 64.7133 98.8379 59.6073 96.5006C58.5628 96.0232 57.5005 95.5849 56.4878 95.0469C56.2293 94.9116 55.9708 94.4769 55.9744 94.1847C56.1266 87.2549 56.3001 80.3251 56.4949 73.3953C56.6401 68.2185 56.8171 63.0416 56.9906 57.8647C57.0296 56.7139 57.0933 55.5631 57.1783 54.4123C57.2208 53.8423 57.0437 53.4931 56.5161 53.2223C54.2641 52.0679 52.0369 50.8708 49.7991 49.6879C49.491 49.5276 49.1865 49.3602 48.8076 49.1571C53.0354 41.0373 57.2279 32.9887 61.4557 24.8654C63.8245 26.8356 66.1155 28.7418 68.4064 30.6443C71.3348 33.0814 74.256 35.5255 77.1985 37.9447C77.7863 38.4257 78.0908 38.8853 78.0235 39.7226C77.7261 43.4992 77.5313 47.2794 77.2764 51.0596C77.0568 54.3339 76.8231 57.6047 76.5682 60.8754C76.2672 64.734 75.9308 68.589 75.6157 72.444C75.5272 73.5343 75.4705 74.6281 75.3678 75.7148C75.3147 76.3062 75.6369 76.552 76.1185 76.7444C79.0893 77.9344 82.0566 79.1387 85.0274 80.3394C85.9976 80.7313 86.9678 81.1304 88.0477 81.5757C88.1504 80.5033 88.2708 79.5805 88.3275 78.6506C88.5151 75.5509 88.6639 72.4476 88.8657 69.3479C89.1383 65.19 89.4641 61.0321 89.7332 56.8743C89.9386 53.7176 90.0767 50.5537 90.275 47.397C90.5264 43.4101 90.8096 39.4233 91.0717 35.4364C91.1779 33.8153 91.3301 32.1906 91.3408 30.566C91.3443 29.7109 91.7444 29.5078 92.4384 29.4543C94.1097 29.3261 95.7846 29.2049 97.4523 29.0517C100.997 28.7311 104.541 28.3926 108.086 28.0648C108.231 28.0506 108.376 28.0648 108.571 28.0648V45.5942C115.635 39.1062 122.589 32.7144 129.621 26.2549C133.506 32.0125 137.333 37.6846 141.292 43.5527C145.382 38.472 149.39 33.4982 153.48 28.4211C158.235 33.8189 162.952 39.1668 167.696 44.5538C165.806 47.0514 163.961 49.492 162.116 51.929C162.173 52.0002 162.233 52.0715 162.29 52.1428C169 47.8958 175.71 43.6489 182.593 39.295C182.193 51.7972 181.796 64.1105 181.4 76.4202C181.502 76.438 181.602 76.4594 181.704 76.4772V76.4594ZM204.837 69.1413C205.071 68.874 205.279 68.6745 205.446 68.4394C208.247 64.5309 211.033 60.6153 213.845 56.7211C214.241 56.1688 214.241 55.898 213.636 55.4776C210.322 53.1796 207.046 50.8209 203.753 48.4872C202.684 47.7284 201.604 46.9873 200.361 46.1179C200.336 46.6559 200.301 46.9695 200.312 47.2794C200.375 48.7224 200.489 50.1654 200.517 51.6119C200.605 56.2258 200.659 60.8433 200.751 65.4572C200.758 65.7779 200.875 66.2161 201.101 66.3907C202.302 67.3313 203.552 68.2042 204.84 69.1413H204.837Z" fill="white"/>
<path d="M304.704 67.5771C311.216 74.8917 317.625 82.0958 324.034 89.2964C324.105 89.2643 324.175 89.2323 324.243 89.2002C324.26 88.9864 324.331 88.762 324.289 88.5553C323.701 85.5162 323.088 82.4806 322.497 79.4415C322.079 77.3002 321.686 75.1553 321.279 73.014C320.56 69.216 319.831 65.4215 319.13 61.6199C319.027 61.0713 318.793 60.886 318.248 60.886C316.421 60.886 314.594 60.8219 312.767 60.8076C306.839 60.7649 300.908 60.7328 294.981 60.6972C294.779 60.6972 294.574 60.6758 294.322 60.6615C294.237 60.3694 294.117 60.095 294.085 59.8136C293.756 56.9633 293.444 54.113 293.122 51.2627C292.888 49.2069 292.661 47.1475 292.403 45.0953C292.332 44.5359 292.53 44.1797 292.931 43.7913C297.835 39.0028 302.718 34.1893 307.611 29.3866C308.794 28.2286 309.976 27.0707 311.194 25.952C311.446 25.7204 311.857 25.5636 312.204 25.5422C316.056 25.3249 319.912 25.1503 323.768 24.9401C328.945 24.6622 334.118 24.3522 339.298 24.0814C340.41 24.0244 341.526 24.0743 342.737 24.0743C342.16 25.5244 341.604 26.946 341.03 28.3569C338.463 34.6739 335.882 40.9837 333.325 47.3079C332.695 48.8648 332.723 48.8827 334.185 49.8161C336.423 51.2413 338.682 52.6379 340.906 54.0916C341.49 54.4728 341.731 54.341 342.036 53.7674C345.155 47.8672 348.292 41.9742 351.447 36.0919C351.635 35.7463 351.929 35.4007 352.258 35.1976C361.018 29.7999 369.789 24.4235 378.56 19.04C379.031 18.7514 379.498 18.4592 380.051 18.1172C381.152 20.3119 382.214 22.414 383.266 24.5232C386.364 30.7333 389.452 36.9506 392.568 43.15C392.985 43.9837 393.067 44.5858 392.412 45.4302C386.761 52.7199 381.177 60.063 375.575 67.3918C373.387 70.2564 371.223 73.1387 369.024 75.9962C368.663 76.4665 368.642 76.7764 369.088 77.1969C370.373 78.4154 371.595 79.7051 372.912 80.8844C373.295 81.2265 373.904 81.4046 374.431 81.4687C377.409 81.8286 380.394 82.1101 383.372 82.4592C386.321 82.8048 389.264 83.211 392.214 83.5744C394.49 83.8559 396.767 84.1088 399.044 84.3761C399.267 84.401 399.49 84.4331 400.007 84.5008C386.644 99.1121 373.436 113.552 360.229 127.993C360.144 127.95 360.059 127.907 359.97 127.861C360.052 126.974 360.115 126.083 360.215 125.196C360.413 123.436 360.632 121.679 360.834 119.919C361.043 118.099 361.234 116.278 361.436 114.461C361.705 112.02 361.974 109.58 362.24 107.139C362.424 105.465 362.64 103.794 362.746 102.112C362.771 101.731 362.505 101.193 362.201 100.947C359.283 98.5955 356.383 96.2155 353.359 94.0065C352.184 93.1479 351.794 92.0184 351.461 90.7821C349.797 84.6361 348.172 78.483 346.511 72.3371C344.971 66.6472 343.402 60.9608 341.844 55.2745C341.816 55.1747 341.77 55.0821 341.572 54.9894C341.49 55.645 341.377 56.3006 341.338 56.9597C341.076 61.3919 340.849 65.8241 340.573 70.2564C340.393 73.1779 340.134 76.0995 339.939 79.021C339.808 80.9984 339.688 82.9794 339.631 84.9604C339.596 86.1896 339.203 87.0518 338.141 87.8285C329.993 93.7785 321.902 99.7998 313.804 105.817C313.223 106.249 312.788 106.38 312.104 105.949C307.523 103.056 302.916 100.209 298.306 97.3592C295.448 95.592 292.58 93.8498 289.719 92.0933C289.574 92.0042 289.443 91.8902 289.255 91.7512C294.389 83.7169 299.502 75.7111 304.704 67.5735V67.5771ZM361.358 43.5383C361.277 43.8804 361.206 44.0443 361.199 44.2117C361.05 47.8173 360.905 51.423 360.76 55.0322C360.586 59.3183 360.409 63.6045 360.253 67.8906C360.243 68.1899 360.292 68.5818 360.477 68.7778C361.259 69.615 362.105 70.3918 363.012 71.2718C366.698 66.045 370.331 60.8931 373.992 55.702C369.782 51.6474 365.639 47.6606 361.358 43.5348V43.5383ZM311.435 52.9871C318.499 51.6296 325.461 50.2971 332.419 48.961C332.436 48.872 332.454 48.7829 332.472 48.6938C325.496 44.8602 318.517 41.0229 311.435 37.1287V52.9871Z" fill="white"/>
<path d="M48.6267 49.3458C48.1699 50.2259 47.7131 51.1059 47.2528 51.9859C45.5426 55.2567 43.8394 58.5274 42.1044 61.7838C41.9698 62.0368 41.6193 62.2862 41.336 62.329C38.0253 62.8278 34.7075 63.2945 31.3896 63.747C30.7452 63.8361 30.5115 64.0249 30.7558 64.7232C32.6644 70.1994 34.5304 75.6933 36.4319 81.173C38.4466 86.9841 40.4933 92.7809 42.5009 98.5955C44.7884 105.215 47.0474 111.846 49.3242 118.469C49.9545 120.308 50.6025 122.143 51.2363 123.981C51.3284 124.248 51.3886 124.526 51.509 124.957C50.3723 124.605 49.3809 124.309 48.3965 123.988C43.8819 122.51 39.3637 121.027 34.8526 119.538C28.9464 117.593 23.0438 115.64 17.1376 113.688C15.9407 113.292 14.7545 112.851 13.5471 112.494C12.9629 112.323 12.9062 112.099 13.0903 111.539C14.836 106.259 16.5639 100.968 18.2459 95.6668C18.3981 95.193 18.3415 94.5445 18.1432 94.0778C15.2255 87.2513 12.2688 80.4391 9.31928 73.6269C6.23871 66.5082 3.15459 59.3932 0.0917236 52.2638C-0.0251258 51.9931 -0.0251258 51.5726 0.102346 51.3054C4.25935 42.5621 8.44468 33.8366 12.6123 25.0969C16.486 16.9735 20.3562 8.84303 24.2016 0.698286C24.5416 -0.0214151 24.8921 -0.117613 25.6074 0.110411C34.1515 2.80395 42.7063 5.46898 51.2611 8.14114C55.9422 9.60192 60.6268 11.0591 65.3113 12.5199C65.4176 12.552 65.5096 12.6232 65.7221 12.7408C64.7165 13.8596 63.7675 14.932 62.8009 15.9937C58.9979 20.1623 55.1702 24.313 51.3921 28.5066C50.7725 29.1942 50.2342 29.4258 49.2888 29.1978C43.3791 27.7619 37.4552 26.4009 31.5313 25.0221C29.9025 24.6444 28.2666 24.2845 26.4572 23.8748C26.3616 24.9722 26.2553 26.0161 26.1845 27.06C25.9827 29.921 25.7986 32.7856 25.6038 35.6501C25.3276 39.694 25.0585 43.7414 24.7505 47.7853C24.6867 48.6226 24.9665 48.8185 25.7738 48.8221C31.1984 48.8506 36.6231 48.9432 42.0477 48.9967C44.1935 49.0181 46.3428 49.0002 48.4886 49.0002L48.6267 49.3494V49.3458Z" fill="white"/>
<path d="M269.44 27.3914C271.692 27.7442 273.834 28.0862 275.98 28.4176C279.319 28.9306 282.655 29.4544 285.997 29.9247C286.585 30.0066 286.72 30.2382 286.734 30.7691C286.876 35.7713 287.017 40.7772 287.191 45.7795C287.403 51.8435 287.644 57.9075 287.874 63.968C287.966 66.4228 288.069 68.8812 288.164 71.336C288.398 77.3644 288.632 83.3963 288.869 89.4247C288.869 89.4853 288.869 89.5423 288.873 89.6029C289.064 91.7014 289.071 91.7192 287.148 92.5921C282.411 94.737 277.666 96.864 272.921 98.9982C272.843 99.0338 272.755 99.0481 272.539 99.1122C270.959 95.3997 269.377 91.68 267.695 87.7252C262.957 92.6349 258.361 97.3949 253.705 102.219C251.98 100.794 250.305 99.4079 248.63 98.022C245.493 95.4246 242.363 92.8202 239.212 90.2442C238.751 89.8701 238.578 89.4817 238.581 88.8939C238.603 83.913 238.603 78.9356 238.596 73.9547C238.589 68.5 238.588 63.0452 238.525 57.5904C238.518 56.8636 238.284 56.0691 237.937 55.4277C236.259 52.3387 234.492 49.2996 232.796 46.2213C232.647 45.9505 232.64 45.441 232.796 45.188C237.293 37.8699 241.818 30.5695 246.343 23.2656C246.389 23.1908 246.46 23.1338 246.623 22.9592C247.019 23.6041 247.409 24.1991 247.763 24.8191C251.024 30.5375 254.243 36.2808 257.564 41.9636C258.201 43.0539 258.074 44.112 258.035 45.213C257.929 48.1096 257.769 51.0062 257.642 53.9028C257.483 57.5405 257.348 61.1782 257.182 64.8124C257.022 68.3254 256.838 71.8419 256.654 75.3549C256.541 77.5069 256.417 79.6589 256.296 81.8144C256.24 82.8156 256.385 82.9154 257.33 82.6838C260.117 82.0068 262.907 81.3299 265.705 80.7064C266.441 80.5425 266.824 80.3251 266.841 79.4629C266.891 76.8015 267.018 74.14 267.156 71.4785C267.429 66.1912 267.744 60.911 268.013 55.6237C268.236 51.2485 268.406 46.8697 268.615 42.4945C268.838 37.8556 269.072 33.2132 269.309 28.5743C269.327 28.2252 269.387 27.876 269.44 27.395V27.3914Z" fill="white"/>
<path d="M182.646 39.0812C177.345 35.7963 172.137 32.5683 166.751 29.2299C180.09 20.793 193.325 12.4238 206.558 4.05457L206.745 4.22202C198.729 15.8156 190.712 27.4128 182.646 39.0812Z" fill="white"/>
</g>
<defs>
<clipPath id="clip0_98_29">
<rect width="400" height="128" fill="white"/>
</clipPath>
</defs>
</svg>
