<svg width="18" height="18" viewBox="0 0 18 18" fill="none" xmlns="http://www.w3.org/2000/svg">
<path d="M6.73994 0.627327C8.84327 0.549618 13.3308 0.331457 15.1268 1.21331C17.1564 2.20972 17.4868 4.03272 17.595 6.08654C17.7027 8.13864 17.7107 10.4008 17.5968 12.4547C17.3809 16.3505 15.1959 17.2962 11.6592 17.4148C10.0981 17.4672 8.3396 17.4672 6.77793 17.4148C2.73936 17.2795 1.00385 16.0822 0.840375 11.8813C0.770149 10.075 0.767271 7.94753 0.840375 6.14238C1.01134 1.92824 2.70367 0.77699 6.73994 0.627903V0.627327ZM6.56783 2.11819C3.50206 2.25404 2.46594 3.05531 2.33182 6.19879C2.25238 8.06438 2.20057 10.2598 2.33469 12.107C2.54192 14.9609 3.62064 15.7996 6.43313 15.9239C8.17382 16.0005 9.97782 15.9326 11.7116 15.8618C13.2595 15.7985 14.8971 15.8618 15.6938 14.223C16.3644 12.8438 16.1474 8.98538 16.1002 7.35119C16.0219 4.66705 16.1675 2.36916 12.7489 2.15676C10.8004 2.0353 8.52495 2.03185 6.56783 2.11877V2.11819Z" fill="white"/>
<path d="M4.74458 5.5541C5.306 5.5541 5.76113 5.09897 5.76113 4.53755C5.76113 3.97612 5.306 3.521 4.74458 3.521C4.18315 3.521 3.72803 3.97612 3.72803 4.53755C3.72803 5.09897 4.18315 5.5541 4.74458 5.5541Z" fill="white"/>
<path d="M9.11823 4.75574C6.74551 4.75574 4.82178 6.67947 4.82178 9.05219C4.82178 11.4249 6.74551 13.3486 9.11823 13.3486C11.491 13.3486 13.4147 11.4249 13.4147 9.05219C13.4147 6.67947 11.491 4.75574 9.11823 4.75574ZM9.21206 11.8509C7.64751 11.8509 6.37941 10.5828 6.37941 9.01823C6.37941 7.45368 7.64751 6.18559 9.21206 6.18559C10.7766 6.18559 12.0447 7.45368 12.0447 9.01823C12.0447 10.5828 10.7766 11.8509 9.21206 11.8509Z" fill="white"/>
</svg>
